<svg width="30" height="30" viewBox="0 0 30 30" fill="none" xmlns="http://www.w3.org/2000/svg">
<rect y="1" width="30" height="29" fill="#C7C7C7"/>
<path d="M10.3945 22H8.57812L5.6543 18.1562C5.54492 18.0117 5.47852 17.9141 5.45508 17.8633H5.43164V22H4.03711V13.5977H5.43164V17.5469H5.45508C5.50195 17.4609 5.56836 17.3652 5.6543 17.2598L8.47266 13.5977H10.1426L6.84375 17.6289L10.3945 22ZM18.498 22H16.9746L12.9609 15.8242C12.8594 15.668 12.7754 15.5059 12.709 15.3379H12.6738C12.7051 15.5176 12.7207 15.9023 12.7207 16.4922V22H11.373V13.5977H12.9961L16.875 19.627C17.0391 19.877 17.1445 20.0488 17.1914 20.1426H17.2148C17.1758 19.9199 17.1562 19.543 17.1562 19.0117V13.5977H18.498V22Z" fill="#020202"/>
<path d="M26.8906 13.5977L24.1367 18.9473V22H22.7422V18.9766L20.0586 13.5977H21.6465L23.2988 17.2012C23.3184 17.2441 23.377 17.4062 23.4746 17.6875H23.4922C23.5273 17.5625 23.5918 17.4004 23.6855 17.2012L25.4141 13.5977H26.8906Z" fill="#F94A11"/>
<line x1="10" y1="0.5" x2="20" y2="0.5" stroke="black"/>
</svg>
